<svg xmlns="http://www.w3.org/2000/svg" viewBox="0 0 564.11 84.67"><defs><style>.cls-1{font-size:59.52px;}.cls-1,.cls-2,.cls-3{fill:#fff;}.cls-1,.cls-3{font-family:TimesNewRomanPSMT, Times New Roman;}.cls-3{font-size:36px;}</style></defs><g id="Layer_2" data-name="Layer 2"><g id="Layer_1-2" data-name="Layer 1"><text class="cls-1" transform="translate(25.81 49.46)">Companhia Sintrense</text><rect class="cls-2" x="40.91" y="69.82" width="32.31" height="14.85" rx="7.43"/><rect class="cls-2" y="69.82" width="32.31" height="14.85" rx="7.43"/><rect class="cls-2" x="81.82" y="69.82" width="32.31" height="14.85" rx="7.43"/><rect class="cls-2" x="122.72" y="69.82" width="32.31" height="14.85" rx="7.43"/><rect class="cls-2" x="163.63" y="69.82" width="32.31" height="14.85" rx="7.43"/><rect class="cls-2" x="204.54" y="69.82" width="32.31" height="14.85" rx="7.43"/><rect class="cls-2" x="245.45" y="69.82" width="32.31" height="14.85" rx="7.43"/><rect class="cls-2" x="286.36" y="69.82" width="32.31" height="14.85" rx="7.43"/><rect class="cls-2" x="327.27" y="69.82" width="32.31" height="14.85" rx="7.43"/><rect class="cls-2" x="368.17" y="69.82" width="32.31" height="14.85" rx="7.43"/><rect class="cls-2" x="409.08" y="69.82" width="32.31" height="14.85" rx="7.43"/><rect class="cls-2" x="449.99" y="69.82" width="32.31" height="14.85" rx="7.43"/><rect class="cls-2" x="490.9" y="69.82" width="32.31" height="14.85" rx="7.43"/><rect class="cls-2" x="531.81" y="69.82" width="32.31" height="14.85" rx="7.43"/><text class="cls-3" transform="translate(540.85 30.69) scale(0.58)">®</text></g></g></svg>